<?xml version="1.0" encoding="UTF-8"?>
<svg width="842px" height="375px" viewBox="0 0 842 375" version="1.1" xmlns="http://www.w3.org/2000/svg" xmlns:xlink="http://www.w3.org/1999/xlink">
    <!-- Generator: Sketch 51.3 (57544) - http://www.bohemiancoding.com/sketch -->
    <title>Artboard</title>
    <desc>Created with Sketch.</desc>
    <defs></defs>
    <g id="Artboard" stroke="none" stroke-width="1" fill="none" fill-rule="evenodd">
        <rect fill="#FFFFFF" x="0" y="0" width="842" height="375"></rect>
        <g id="icons8-roman-soldier-2" transform="translate(22.000000, 30.000000)" fill="#000000" fill-rule="nonzero">
            <path d="M177.242798,0 C131.580247,0 94.6296296,36.9 94.6296296,82.5 C94.6296296,85.05 94.7727983,87.525 94.9229965,90 L124.744127,83.9941425 C124.669024,83.5441425 124.670782,83.025 124.670782,82.5 C124.670782,53.55 148.253086,30 177.242798,30 C206.23251,30 229.814815,53.55 229.814815,82.5 L229.814815,91.4941425 L258.506458,97.5 C259.407701,92.625 259.855967,87.6 259.855967,82.5 C259.855967,36.9 222.90535,0 177.242798,0 Z M18.3972722,30.1025393 C15.3494094,30.0908572 12.5966539,31.9196553 11.4297197,34.7314455 L0.985725309,60.0292965 C0.42418344,61.381639 0.271211451,62.8685257 0.545668992,64.306641 L22.0790738,176.850585 L10.1095522,179.135745 C6.03464705,179.912395 3.36174695,183.840833 4.13946275,187.910156 C4.91717854,191.979479 8.85100507,194.648718 12.9259102,193.872068 L30.6161587,190.502932 C29.9267661,191.59134 29.2758772,192.7134 28.7679241,193.945312 C24.0364419,205.420313 29.5107382,218.546483 41.0014789,223.271482 L95.7591094,245.771482 C98.5379159,246.971482 101.456947,247.5 104.310857,247.5 C112.121556,247.5 119.718686,243.375 123.849344,236.25 L133.457233,219.667965 L145.177391,262.5 L200.301726,262.5 C199.926212,258.975 199.773663,255.380858 199.773663,251.630858 L199.773663,177.59766 C199.773663,165.447652 209.916074,155.551755 222.157843,155.551755 C229.818337,155.476755 229.814815,151.870897 229.814815,149.545897 C229.814815,143.245898 232.51441,137.554102 236.870377,133.579102 C232.889925,131.029102 228.458855,129.147067 223.727373,128.247068 C223.351859,128.547067 222.975173,128.857028 222.524556,129.082035 L166.197395,162.832035 C165.896984,163.057035 165.531443,163.194727 165.155928,163.344728 C163.053048,164.469727 160.720165,165 158.467078,165 C153.8107,165 149.14787,162.82617 146.218857,158.70117 C145.993549,158.40117 144.495006,156.155858 142.317022,152.255858 C140.139039,148.505858 137.508681,143.255272 134.88008,136.655272 C130.44901,138.455272 126.55129,141.75 123.92269,146.25 L94.7029751,196.728518 L64.0017361,184.130858 L81.1199132,180.864255 C85.0008415,180.178773 87.6911906,176.614332 87.2822263,172.699813 C86.873262,168.785294 83.5040895,165.852181 79.5650507,165.981442 C79.141165,165.99462 78.7191584,166.043625 78.3035551,166.127932 L66.3340335,168.413085 L44.8152971,55.869141 C44.5407264,54.4341102 43.8524691,53.1103934 42.8350451,52.0605465 L23.7806227,32.3876955 C22.3691177,30.9308123 20.4272147,30.1065019 18.3972722,30.1025393 Z M177.242798,45 C156.514403,45 139.691358,61.8 139.691358,82.5 C139.691358,84.9 139.685492,91.85367 141.18755,102.45117 L152.379637,95.09766 L158.085698,91.274415 C161.465328,88.949415 166.128158,89.9191425 168.456347,93.3691425 C169.132273,94.4191425 169.508959,95.5546875 169.659165,96.6796875 C169.959576,99.3796875 168.762038,102.150585 166.358746,103.725585 L144.575982,118.271483 C147.970632,133.308983 158.467078,150 158.467078,150 L214.794239,116.25 L214.794239,82.5 C214.794239,61.8 197.971193,45 177.242798,45 Z M20.9495963,51.0498045 L30.469473,60.8789063 L51.5774898,171.225585 L36.8209477,174.038085 L15.7275992,63.6914063 L20.9495963,51.0498045 Z M150.282036,134.47266 C150.432242,134.84766 150.58832,135.227348 150.663423,135.52734 L150.355381,136.127932 C150.58069,136.127932 150.804827,136.197653 151.030136,136.34766 C150.955033,136.19766 150.88521,136.045313 150.810107,135.820312 C150.735004,135.670312 150.736761,135.604102 150.736761,135.454103 C150.511453,135.154102 150.357139,134.84766 150.282036,134.47266 Z M252.345679,142.5 C248.2,142.5 244.835391,145.8525 244.835391,150 C244.835391,169.2375 226.03714,170.397067 222.304527,170.434568 C218.158848,170.434568 214.794239,173.787068 214.794239,177.934568 L214.794239,251.586915 C214.794239,323.241915 283.660178,357.798278 286.596701,359.238285 C287.63312,359.748277 288.763066,360 289.897119,360 C290.986111,360 292.073811,359.769375 293.08019,359.296875 C296.016712,357.931875 365,324.891915 365,251.586915 L365,177.934568 C365,173.787068 361.635391,170.434568 357.489712,170.434568 C355.184053,170.434568 334.958848,169.8675 334.958848,150 C334.958848,145.8525 331.594239,142.5 327.44856,142.5 L252.345679,142.5 Z M143.519848,277.5 C135.483839,294.075 117.160494,333.3 117.160494,345 L241.755001,345 C225.532779,329.325 208.929763,306.975 202.546018,277.5 L143.519848,277.5 Z" id="Shape"></path>
        </g>
        <path d="M432.996094,296.558594 C416.472656,296.558594 405.28125,288.53125 403.933594,277.339844 L420.691406,277.339844 C422.039062,281.675781 426.960938,284.605469 433.464844,284.605469 C442.3125,284.605469 447.234375,279.742188 447.234375,272.476562 L447.234375,261.460938 L446.882812,261.460938 C443.953125,268.140625 436.570312,272.710938 427.488281,272.710938 C412.136719,272.710938 402,260.875 402,241.246094 C402,221.324219 411.84375,209.078125 427.78125,209.078125 C436.804688,209.078125 443.894531,213.824219 447.175781,221.03125 L447.46875,221.03125 L447.46875,210.074219 L464.34375,210.074219 L464.34375,272.007812 C464.34375,286.949219 451.804688,296.558594 432.996094,296.558594 Z M433.289062,259.527344 C441.84375,259.527344 447.292969,252.730469 447.292969,241.363281 C447.292969,230.054688 441.84375,222.789062 433.289062,222.789062 C424.851562,222.789062 419.519531,229.9375 419.519531,241.363281 C419.519531,252.847656 424.792969,259.527344 433.289062,259.527344 Z M533.484375,210.074219 L533.484375,272.886719 L516.960938,272.886719 L516.960938,261.578125 L516.609375,261.578125 C513.503906,269.488281 507.292969,274.058594 497.800781,274.058594 C484.207031,274.058594 475.183594,265.210938 475.183594,250.5625 L475.183594,210.074219 L492.292969,210.074219 L492.292969,246.988281 C492.292969,255.367188 496.453125,259.820312 504.011719,259.820312 C511.628906,259.820312 516.375,254.371094 516.375,246.050781 L516.375,210.074219 L533.484375,210.074219 Z M563.25,273.882812 C551.296875,273.882812 542.214844,266.148438 542.214844,254.839844 C542.214844,243.414062 551.003906,236.792969 566.648438,235.855469 L582.46875,234.917969 L582.46875,230.757812 C582.46875,224.898438 578.367188,221.5 571.921875,221.5 C565.535156,221.5 561.492188,224.664062 560.671875,229.292969 L545.027344,229.292969 C545.671875,217.105469 556.042969,208.726562 572.683594,208.726562 C588.796875,208.726562 599.285156,217.046875 599.285156,229.703125 L599.285156,272.886719 L582.761719,272.886719 L582.761719,263.277344 L582.410156,263.277344 C578.894531,269.957031 571.101562,273.882812 563.25,273.882812 Z M568.875,261.519531 C576.316406,261.519531 582.46875,256.65625 582.46875,249.859375 L582.46875,245.289062 L569.226562,246.109375 C562.839844,246.578125 559.207031,249.449219 559.207031,253.902344 C559.207031,258.589844 563.074219,261.519531 568.875,261.519531 Z M610.300781,272.886719 L610.300781,210.074219 L626.824219,210.074219 L626.824219,221.382812 L627.175781,221.382812 C629.402344,213.414062 634.734375,209.078125 642.117188,209.078125 C644.109375,209.078125 645.808594,209.371094 646.980469,209.722656 L646.980469,224.78125 C645.574219,224.195312 643.230469,223.785156 640.769531,223.785156 C632.332031,223.785156 627.410156,228.941406 627.410156,237.789062 L627.410156,272.886719 L610.300781,272.886719 Z M675.222656,273.882812 C659.519531,273.882812 649.617188,261.460938 649.617188,241.363281 C649.617188,221.441406 659.578125,209.078125 675.339844,209.078125 C684.421875,209.078125 691.453125,213.882812 694.5,220.855469 L694.851562,220.855469 L694.851562,188.335938 L711.960938,188.335938 L711.960938,272.886719 L695.085938,272.886719 L695.085938,262.105469 L694.792969,262.105469 C691.746094,269.019531 684.480469,273.882812 675.222656,273.882812 Z M681.023438,222.789062 C672.410156,222.789062 667.136719,229.996094 667.136719,241.480469 C667.136719,253.023438 672.410156,260.113281 681.023438,260.113281 C689.519531,260.113281 694.96875,252.964844 694.96875,241.480469 C694.96875,230.054688 689.519531,222.789062 681.023438,222.789062 Z M732.175781,201.578125 C727.195312,201.578125 723.269531,197.59375 723.269531,192.789062 C723.269531,187.925781 727.195312,184 732.175781,184 C737.15625,184 741.082031,187.925781 741.082031,192.789062 C741.082031,197.59375 737.15625,201.578125 732.175781,201.578125 Z M723.679688,272.886719 L723.679688,210.074219 L740.789062,210.074219 L740.789062,272.886719 L723.679688,272.886719 Z M770.789062,273.882812 C758.835938,273.882812 749.753906,266.148438 749.753906,254.839844 C749.753906,243.414062 758.542969,236.792969 774.1875,235.855469 L790.007812,234.917969 L790.007812,230.757812 C790.007812,224.898438 785.90625,221.5 779.460938,221.5 C773.074219,221.5 769.03125,224.664062 768.210938,229.292969 L752.566406,229.292969 C753.210938,217.105469 763.582031,208.726562 780.222656,208.726562 C796.335938,208.726562 806.824219,217.046875 806.824219,229.703125 L806.824219,272.886719 L790.300781,272.886719 L790.300781,263.277344 L789.949219,263.277344 C786.433594,269.957031 778.640625,273.882812 770.789062,273.882812 Z M776.414062,261.519531 C783.855469,261.519531 790.007812,256.65625 790.007812,249.859375 L790.007812,245.289062 L776.765625,246.109375 C770.378906,246.578125 766.746094,249.449219 766.746094,253.902344 C766.746094,258.589844 770.613281,261.519531 776.414062,261.519531 Z" id="guardia" fill="#000000"></path>
    </g>
</svg>