<?xml version="1.0" encoding="UTF-8"?>
<svg width="295px" height="131px" viewBox="0 0 295 131" version="1.1" xmlns="http://www.w3.org/2000/svg" xmlns:xlink="http://www.w3.org/1999/xlink">
    <!-- Generator: Sketch 51.3 (57544) - http://www.bohemiancoding.com/sketch -->
    <title>Artboard</title>
    <desc>Created with Sketch.</desc>
    <defs></defs>
    <g id="Artboard" stroke="none" stroke-width="1" fill="none" fill-rule="evenodd">
        <rect fill="#FFFFFF" x="0" y="0" width="295" height="131"></rect>
        <g id="icons8-roman-soldier-2" transform="translate(7.700000, 10.500000)" fill="#000000" fill-rule="nonzero">
            <path d="M62.0349794,0 C46.0530864,0 33.1203704,12.915 33.1203704,28.875 C33.1203704,29.7675 33.1704794,30.63375 33.2230488,31.5 L43.6604446,29.3979499 C43.6341586,29.2404499 43.6347737,29.05875 43.6347737,28.875 C43.6347737,18.7425 51.8885802,10.5 62.0349794,10.5 C72.1813786,10.5 80.4351852,18.7425 80.4351852,28.875 L80.4351852,32.0229499 L90.4772605,34.125 C90.7926952,32.41875 90.9495885,30.66 90.9495885,28.875 C90.9495885,12.915 78.0168724,0 62.0349794,0 Z M6.43904528,10.5358887 C5.37229328,10.5318 4.40882886,11.1718794 4.00040188,12.1560059 L0.345003858,21.0102538 C0.148464204,21.4835737 0.094924008,22.003984 0.190984147,22.5073243 L7.72767583,61.8977048 L3.53834327,62.6975107 C2.11212647,62.9693384 1.17661143,64.3442916 1.44881196,65.7685547 C1.72101249,67.1928178 3.09785178,68.1270513 4.52406858,67.8552236 L10.7156555,66.6760264 C10.4743681,67.056969 10.246557,67.44969 10.0687734,67.8808594 C8.41275466,71.8971094 10.3287584,76.4912689 14.3505176,78.1450189 L33.5156883,86.0200189 C34.4882706,86.4400189 35.5099315,86.625 36.5087998,86.625 C39.2425447,86.625 41.90154,85.18125 43.3472704,82.6875 L46.7100316,76.8837877 L50.8120867,91.875 L70.1056041,91.875 C69.974174,90.64125 69.9207819,89.3833001 69.9207819,88.0708001 L69.9207819,62.159181 C69.9207819,57.9066784 73.4706258,54.4431143 77.7552452,54.4431143 C80.436418,54.4168642 80.4351852,53.1548141 80.4351852,52.3410641 C80.4351852,50.1360641 81.3800436,48.1439359 82.9046321,46.7526859 C81.5114737,45.8601859 79.9605992,45.2014736 78.3045807,44.8864736 C78.1731506,44.9914736 78.0413105,45.0999596 77.8835945,45.1787122 L58.1690883,56.9912122 C58.0639443,57.0699623 57.936005,57.1181546 57.804575,57.1706546 C57.0685667,57.5644046 56.2520576,57.75 55.4634774,57.75 C53.8337449,57.75 52.2017544,56.9891595 51.1766001,55.5454095 C51.097742,55.4404095 50.5732521,54.6545501 49.8109578,53.2895501 C49.0486636,51.9770501 48.1280382,50.1393454 47.2080279,47.8293454 C45.6571534,48.4593454 44.2929517,49.6125 43.3729414,51.1875 L33.1460413,68.8549811 L22.4006076,64.4458001 L28.3919696,63.3024893 C29.7502945,63.0625705 30.6919167,61.8150163 30.5487792,60.4449345 C30.4056417,59.0748528 29.2264313,58.0482632 27.8477678,58.0935049 C27.6994077,58.0981171 27.5517054,58.1152689 27.4062443,58.1447764 L23.2169117,58.9445798 L15.685354,19.5541994 C15.5892542,19.0519386 15.3483642,18.5886377 14.9922658,18.2211913 L8.32321794,11.3356934 C7.82919118,10.8257843 7.14952515,10.5372757 6.43904528,10.5358887 Z M62.0349794,15.75 C54.7800412,15.75 48.8919753,21.63 48.8919753,28.875 C48.8919753,29.715 48.8899224,32.1487845 49.4156425,35.8579095 L53.3328729,33.284181 L55.3299944,31.9460453 C56.5128648,31.1322952 58.1448552,31.4716999 58.9597215,32.6791999 C59.1962956,33.0466999 59.3281357,33.4441406 59.3807077,33.8378906 C59.4858517,34.7828906 59.0667134,35.7527047 58.2255612,36.3039548 L50.6015936,41.3950189 C51.7897212,46.6581439 55.4634774,52.5 55.4634774,52.5 L75.1779835,40.6875 L75.1779835,28.875 C75.1779835,21.63 69.2899177,15.75 62.0349794,15.75 Z M7.33235871,17.8674316 L10.6643156,21.3076172 L18.0521214,59.9289547 L12.8873317,60.9133297 L5.5046597,22.2919922 L7.33235871,17.8674316 Z M52.5987125,47.065431 C52.6512845,47.196681 52.7059121,47.3295716 52.7321981,47.434569 L52.6243834,47.6447764 C52.7032415,47.6447764 52.7816894,47.6691784 52.8605475,47.721681 C52.8342615,47.669181 52.8098233,47.6158594 52.7835373,47.5371094 C52.7572513,47.4846094 52.7578664,47.4614359 52.7578664,47.4089359 C52.6790084,47.3039359 52.6249985,47.196681 52.5987125,47.065431 Z M88.3209877,49.875 C86.87,49.875 85.6923868,51.048375 85.6923868,52.5 C85.6923868,59.233125 79.112999,59.6389736 77.8065844,59.6520986 C76.3555967,59.6520986 75.1779835,60.8254736 75.1779835,62.2770986 L75.1779835,88.0554202 C75.1779835,113.13467 99.2810623,125.229397 100.308845,125.7334 C100.671592,125.911897 101.067073,126 101.463992,126 C101.845139,126 102.225834,125.919281 102.578066,125.753906 C103.605849,125.276156 127.75,113.71217 127.75,88.0554202 L127.75,62.2770986 C127.75,60.8254736 126.572387,59.6520986 125.121399,59.6520986 C124.314419,59.6520986 117.235597,59.453625 117.235597,52.5 C117.235597,51.048375 116.057984,49.875 114.606996,49.875 L88.3209877,49.875 Z M50.2319466,97.125 C47.4193438,102.92625 41.0061728,116.655 41.0061728,120.75 L84.6142504,120.75 C78.9364727,115.26375 73.1254169,107.44125 70.8911062,97.125 L50.2319466,97.125 Z" id="Shape"></path>
        </g>
        <path d="M151.548633,103.795508 C145.76543,103.795508 141.848437,100.985937 141.376758,97.0689453 L147.241992,97.0689453 C147.713672,98.5865234 149.436328,99.6119141 151.712695,99.6119141 C154.809375,99.6119141 156.532031,97.9097656 156.532031,95.3667969 L156.532031,91.5113281 L156.408984,91.5113281 C155.383594,93.8492187 152.799609,95.4488281 149.620898,95.4488281 C144.247852,95.4488281 140.7,91.30625 140.7,84.4361328 C140.7,77.4634766 144.145312,73.1773437 149.723437,73.1773437 C152.881641,73.1773437 155.363086,74.8384766 156.511523,77.3609375 L156.614062,77.3609375 L156.614062,73.5259766 L162.520312,73.5259766 L162.520312,95.2027344 C162.520312,100.432227 158.131641,103.795508 151.548633,103.795508 Z M151.651172,90.8345703 C154.645312,90.8345703 156.552539,88.4556641 156.552539,84.4771484 C156.552539,80.5191406 154.645312,77.9761719 151.651172,77.9761719 C148.698047,77.9761719 146.831836,80.478125 146.831836,84.4771484 C146.831836,88.4966797 148.677539,90.8345703 151.651172,90.8345703 Z M186.719531,73.5259766 L186.719531,95.5103516 L180.936328,95.5103516 L180.936328,91.5523437 L180.813281,91.5523437 C179.726367,94.3208984 177.552539,95.9205078 174.230273,95.9205078 C169.472461,95.9205078 166.314258,92.8238281 166.314258,87.696875 L166.314258,73.5259766 L172.302539,73.5259766 L172.302539,86.4458984 C172.302539,89.3785156 173.758594,90.9371094 176.404102,90.9371094 C179.070117,90.9371094 180.73125,89.0298828 180.73125,86.1177734 L180.73125,73.5259766 L186.719531,73.5259766 Z M197.1375,95.8589844 C192.953906,95.8589844 189.775195,93.1519531 189.775195,89.1939453 C189.775195,85.1949219 192.851367,82.8775391 198.326953,82.5494141 L203.864062,82.2212891 L203.864062,80.7652344 C203.864062,78.7144531 202.428516,77.525 200.172656,77.525 C197.937305,77.525 196.522266,78.6324219 196.235156,80.2525391 L190.75957,80.2525391 C190.985156,75.9869141 194.615039,73.0542969 200.439258,73.0542969 C206.078906,73.0542969 209.749805,75.9664062 209.749805,80.3960937 L209.749805,95.5103516 L203.966602,95.5103516 L203.966602,92.1470703 L203.843555,92.1470703 C202.613086,94.4849609 199.885547,95.8589844 197.1375,95.8589844 Z M199.10625,91.5318359 C201.710742,91.5318359 203.864062,89.8296875 203.864062,87.4507812 L203.864062,85.8511719 L199.229297,86.1382812 C196.993945,86.3023437 195.722461,87.3072266 195.722461,88.8658203 C195.722461,90.5064453 197.075977,91.5318359 199.10625,91.5318359 Z M213.605273,95.5103516 L213.605273,73.5259766 L219.388477,73.5259766 L219.388477,77.4839844 L219.511523,77.4839844 C220.29082,74.6949219 222.157031,73.1773437 224.741016,73.1773437 C225.438281,73.1773437 226.033008,73.2798828 226.443164,73.4029297 L226.443164,78.6734375 C225.950977,78.4683594 225.130664,78.3248047 224.269336,78.3248047 C221.316211,78.3248047 219.593555,80.1294922 219.593555,83.2261719 L219.593555,95.5103516 L213.605273,95.5103516 Z M236.32793,95.8589844 C230.831836,95.8589844 227.366016,91.5113281 227.366016,84.4771484 C227.366016,77.5044922 230.852344,73.1773437 236.368945,73.1773437 C239.547656,73.1773437 242.008594,74.8589844 243.075,77.2994141 L243.198047,77.2994141 L243.198047,65.9175781 L249.186328,65.9175781 L249.186328,95.5103516 L243.280078,95.5103516 L243.280078,91.7369141 L243.177539,91.7369141 C242.111133,94.1568359 239.568164,95.8589844 236.32793,95.8589844 Z M238.358203,77.9761719 C235.343555,77.9761719 233.497852,80.4986328 233.497852,84.5181641 C233.497852,88.5582031 235.343555,91.0396484 238.358203,91.0396484 C241.331836,91.0396484 243.239062,88.5376953 243.239062,84.5181641 C243.239062,80.5191406 241.331836,77.9761719 238.358203,77.9761719 Z M256.261523,70.5523437 C254.518359,70.5523437 253.144336,69.1578125 253.144336,67.4761719 C253.144336,65.7740234 254.518359,64.4 256.261523,64.4 C258.004687,64.4 259.378711,65.7740234 259.378711,67.4761719 C259.378711,69.1578125 258.004687,70.5523437 256.261523,70.5523437 Z M253.287891,95.5103516 L253.287891,73.5259766 L259.276172,73.5259766 L259.276172,95.5103516 L253.287891,95.5103516 Z M269.776172,95.8589844 C265.592578,95.8589844 262.413867,93.1519531 262.413867,89.1939453 C262.413867,85.1949219 265.490039,82.8775391 270.965625,82.5494141 L276.502734,82.2212891 L276.502734,80.7652344 C276.502734,78.7144531 275.067187,77.525 272.811328,77.525 C270.575977,77.525 269.160937,78.6324219 268.873828,80.2525391 L263.398242,80.2525391 C263.623828,75.9869141 267.253711,73.0542969 273.07793,73.0542969 C278.717578,73.0542969 282.388477,75.9664062 282.388477,80.3960937 L282.388477,95.5103516 L276.605273,95.5103516 L276.605273,92.1470703 L276.482227,92.1470703 C275.251758,94.4849609 272.524219,95.8589844 269.776172,95.8589844 Z M271.744922,91.5318359 C274.349414,91.5318359 276.502734,89.8296875 276.502734,87.4507812 L276.502734,85.8511719 L271.867969,86.1382812 C269.632617,86.3023437 268.361133,87.3072266 268.361133,88.8658203 C268.361133,90.5064453 269.714648,91.5318359 271.744922,91.5318359 Z" id="guardia" fill="#000000"></path>
    </g>
</svg>